<svg width="45" height="45" viewBox="0 0 45 45" fill="none" xmlns="http://www.w3.org/2000/svg">
<path d="M13 24.8571L12.2929 24.15L12 24.4429V24.8571H13ZM25.8571 12L26.5642 11.2929C26.1737 10.9024 25.5406 10.9024 25.15 11.2929L25.8571 12ZM33 19.1429L33.7071 19.85C34.0976 19.4594 34.0976 18.8263 33.7071 18.4358L33 19.1429ZM20.1429 32V33H20.5571L20.85 32.7071L20.1429 32ZM13 32H12C12 32.5523 12.4477 33 13 33V32ZM13.7071 25.5642L26.5642 12.7071L25.15 11.2929L12.2929 24.15L13.7071 25.5642ZM25.15 12.7071L32.2929 19.85L33.7071 18.4358L26.5642 11.2929L25.15 12.7071ZM32.2929 18.4358L19.4358 31.2929L20.85 32.7071L33.7071 19.85L32.2929 18.4358ZM20.1429 31H13V33H20.1429V31ZM14 32V24.8571H12V32H14ZM20.8643 16.9928L28.0072 24.1357L29.4214 22.7215L22.2785 15.5786L20.8643 16.9928Z" fill="black"/>
</svg>
