<svg width="45" height="45" viewBox="0 0 45 45" fill="none" xmlns="http://www.w3.org/2000/svg">
<rect width="45" height="45" rx="14" fill="#F0F0F0"/>
<path d="M16.5537 22L8 28.2731V15.7269L16.5537 22ZM27.4463 22L36 28.2731V15.7269L27.4463 22ZM26.1966 22.9192L22.3722 25.7231C22.2595 25.8038 22.1298 25.8462 22 25.8462C21.8702 25.8462 21.7405 25.8038 21.6278 25.7231L17.8034 22.9192L8.56683 29.6923L8.03073 30.0846C8.19805 31.1692 9.03805 32 10.0488 32H33.9512C34.962 32 35.802 31.1731 35.9693 30.0846L35.4298 29.6923L26.1966 22.9192ZM22 24.1577L35.4298 14.3077L35.9693 13.9154C35.802 12.8269 34.962 12 33.9512 12H10.0488C9.03805 12 8.19805 12.8308 8.03073 13.9154L8.56683 14.3077L22 24.1577Z" fill="black"/>
</svg>
