<svg width="45" height="45" viewBox="0 0 45 45" fill="none" xmlns="http://www.w3.org/2000/svg">
<path d="M16.7143 22L22.4286 22M26 17L22.4286 21.9935L26 27M31 14.8553C31 16.4314 29.72 17.7106 28.1429 17.7106C26.5657 17.7106 25.2857 16.4314 25.2857 14.8553C25.2857 13.2792 26.5657 12 28.1429 12C29.72 12 31 13.2792 31 14.8553ZM31 29.1317C31 30.7078 29.72 31.9869 28.1429 31.9869C26.5657 31.9869 25.2857 30.7078 25.2857 29.1317C25.2857 27.5556 26.5657 26.2764 28.1429 26.2764C29.72 26.2764 31 27.5556 31 29.1317ZM16.7143 21.9935C16.7143 23.5696 15.4343 24.8488 13.8571 24.8488C12.28 24.8488 11 23.5696 11 21.9935C11 20.4174 12.28 19.1382 13.8571 19.1382C15.4343 19.1382 16.7143 20.4174 16.7143 21.9935Z" stroke="black" stroke-width="2" stroke-linecap="square"/>
</svg>
