<svg width="45" height="45" viewBox="0 0 45 45" fill="none" xmlns="http://www.w3.org/2000/svg">
<g clip-path="url(#clip0_819_2716)">
<rect width="45" height="45" rx="14" fill="black"/>
<path fill-rule="evenodd" clip-rule="evenodd" d="M1.22618 6.14261C0 8.54911 0 11.6994 0 18V27C0 33.3006 0 36.4509 1.22618 38.8574C2.30475 40.9742 4.02578 42.6952 6.14261 43.7738C8.54911 45 11.6994 45 18 45H27C33.3006 45 36.4509 45 38.8574 43.7738C40.9742 42.6952 42.6952 40.9742 43.7738 38.8574C45 36.4509 45 33.3006 45 27V18C45 11.6994 45 8.54911 43.7738 6.14261C42.6952 4.02578 40.9742 2.30475 38.8574 1.22618C36.4509 0 33.3006 0 27 0H18C11.6994 0 8.54911 0 6.14261 1.22618C4.02578 2.30475 2.30475 4.02578 1.22618 6.14261ZM24.7347 14.0761C22.0479 15.1937 16.6779 17.5068 8.62484 21.0154C7.31715 21.5354 6.63213 22.0441 6.56977 22.5416C6.46438 23.3822 7.51716 23.7133 8.95077 24.1641C9.14578 24.2254 9.34783 24.2889 9.55497 24.3563C10.9654 24.8147 12.8627 25.3511 13.849 25.3724C14.7437 25.3918 15.7423 25.0229 16.8448 24.2659C24.369 19.1868 28.253 16.6196 28.4969 16.5643C28.6689 16.5252 28.9073 16.4761 29.0688 16.6197C29.2304 16.7633 29.2145 17.0351 29.1974 17.1081C29.0931 17.5527 24.9605 21.3947 22.8219 23.3829C22.1553 24.0027 21.6823 24.4424 21.5857 24.5428C21.3691 24.7677 21.1484 24.9805 20.9363 25.185C19.6259 26.4482 18.6433 27.3954 20.9907 28.9423C22.1187 29.6857 23.0214 30.3004 23.922 30.9137C24.9054 31.5834 25.8864 32.2514 27.1555 33.0834C27.4789 33.2953 27.7877 33.5155 28.0885 33.7299C29.233 34.5459 30.2612 35.2789 31.5316 35.162C32.2698 35.0941 33.0322 34.4 33.4195 32.3299C34.3346 27.4376 36.1334 16.8375 36.5492 12.4694C36.5856 12.0867 36.5398 11.597 36.503 11.382C36.4662 11.167 36.3893 10.8606 36.1098 10.6339C35.7788 10.3653 35.2679 10.3087 35.0394 10.3127C34.0004 10.331 32.4063 10.8853 24.7347 14.0761Z" fill="#F0F0F0"/>
</g>
<defs>
<clipPath id="clip0_819_2716">
<rect width="45" height="45" rx="14" fill="white"/>
</clipPath>
</defs>
</svg>
