<svg width="45" height="45" viewBox="0 0 45 45" fill="none" xmlns="http://www.w3.org/2000/svg">
<rect width="45" height="45" rx="10" fill="#F0F0F0"/>
<path d="M23.4332 7C15.3811 7 8.85993 13.4648 8.85993 21.4473C8.85993 24.6635 9.92182 27.6344 11.7134 30.0369L8 38L8.97068 37.5544L16.4495 34.1315C18.5212 35.2552 20.899 35.8946 23.4267 35.8946C31.4723 35.8946 38 29.4298 38 21.4473C38.0065 13.4648 31.4788 7 23.4332 7ZM31.2052 27.615C31.1205 28.0154 30.9446 28.3965 30.6905 28.7323C30.3778 29.1456 29.9739 29.4556 29.5114 29.6494C29.0489 29.8431 28.5407 29.9206 28.0326 29.856C26.671 29.6946 25.355 29.2619 24.1759 28.5644C22.8143 27.7635 20.9837 26.5171 19.6026 24.7346C18.1303 23.0231 17.329 21.021 16.8208 19.5292C16.3844 18.244 16.228 16.8748 16.3518 15.525C16.3974 15.0148 16.5798 14.5369 16.8664 14.13C17.1531 13.7231 17.5505 13.3937 18.0195 13.1806C18.4039 12.9998 18.8208 12.9158 19.2313 12.9158C19.8176 12.9158 20.5342 12.9094 21.0293 13.2581C21.798 13.7942 22.1238 14.8533 22.1238 15.7833C22.1238 15.8673 22.1173 15.9577 22.1107 16.0417C22.0651 16.5519 22.0195 16.9975 21.7264 17.4044C21.4397 17.8112 20.912 18.1665 20.443 18.386C20.8013 20.2977 21.4202 21.7185 22.2736 22.6356C22.6384 23.1394 23.1335 23.6173 23.7655 24.0629C24.3974 24.5085 25.1596 24.9154 26.0651 25.29C26.3778 24.8831 26.8404 24.444 27.3029 24.2502C27.759 24.0565 28.215 24.1017 28.7231 24.1662C28.8078 24.1792 28.899 24.1921 28.9837 24.2115C29.8958 24.4052 30.873 24.9412 31.2443 25.8002C31.4788 26.3556 31.329 27.0467 31.2052 27.615Z" fill="#020202"/>
</svg>
