<svg width="34" height="34" viewBox="0 0 34 34" fill="none" xmlns="http://www.w3.org/2000/svg">
<path d="M4.20848 23.4873C3.34325 22.9771 2.62459 22.2436 2.12461 21.3603C1.62462 20.4769 1.36089 19.4748 1.35986 18.4545V6.81818C1.35986 5.2751 1.96011 3.79523 3.02854 2.70411C4.09698 1.61299 5.54609 1 7.05709 1H18.4516C19.4506 1.00105 20.4319 1.27038 21.2969 1.78098C22.1618 2.29158 22.8801 3.02549 23.3797 3.90909" stroke="black" stroke-width="2" stroke-linecap="round" stroke-linejoin="round"/>
<path d="M26.9975 9.72754H15.603C12.4565 9.72754 9.90576 12.3324 9.90576 15.5457V27.1821C9.90576 30.3954 12.4565 33.0003 15.603 33.0003H26.9975C30.1439 33.0003 32.6947 30.3954 32.6947 27.1821V15.5457C32.6947 12.3324 30.1439 9.72754 26.9975 9.72754Z" stroke="black" stroke-width="2" stroke-linecap="round" stroke-linejoin="round"/>
</svg>
