<svg width="40" height="43" viewBox="0 0 40 43" fill="none" xmlns="http://www.w3.org/2000/svg">
<path d="M5.49738 7.24414C4.62958 7.24414 3.9267 8.00692 3.9267 8.94869V32.8123C3.9267 33.7541 4.62958 34.5169 5.49738 34.5169H24.7382C24.002 34.5169 24.7685 34.6223 24.7382 34.5169C22.7749 26.8464 29.4503 24.2896 30.6283 24.7157L28.5422 22.6516C27.1828 21.2948 25.0906 21.2981 23.7335 22.6583L17.8327 28.7757L14.3248 25.3033C12.9944 24.0684 11.0328 24.0716 9.70631 25.3117L4.71204 29.9825V8.94869C4.71204 8.47823 5.06387 8.09641 5.49738 8.09641H33.7696C34.2031 8.09641 34.555 8.47823 34.555 8.94869V25.3816C34.8314 25.5401 35.0921 25.6049 35.3403 25.8077V8.94869C35.3403 8.00692 34.6374 7.24414 33.7696 7.24414H5.49738ZM14.1392 12.9387C12.8041 12.9387 11.7218 14.1133 11.7218 15.5621C11.7218 17.011 12.8049 18.1864 14.1392 18.1855C15.4743 18.1855 16.5566 17.011 16.5566 15.5621C16.5566 14.1133 15.4743 12.9387 14.1392 12.9387ZM31.8063 26.8464C28.9869 26.8464 26.7016 29.3265 26.7016 32.3862C26.7016 35.4458 28.9869 37.926 31.8063 37.926C34.6257 37.926 36.911 35.4458 36.911 32.3862C36.911 29.3265 34.6257 26.8464 31.8063 26.8464ZM31.8063 28.9771C32.023 28.9771 32.1989 29.168 32.1989 29.4032V31.9601H34.555C34.7717 31.9601 34.9476 32.151 34.9476 32.3862C34.9476 32.6214 34.7717 32.8123 34.555 32.8123H32.1989V35.3691C32.1989 35.6044 32.023 35.7953 31.8063 35.7953C31.5895 35.7953 31.4136 35.6044 31.4136 35.3691V32.8123H29.0576C28.8408 32.8123 28.6649 32.6214 28.6649 32.3862C28.6649 32.151 28.8408 31.9601 29.0576 31.9601H31.4136V29.4032C31.4136 29.168 31.5895 28.9771 31.8063 28.9771Z" fill="#8D8D8D"/>
</svg>
